<svg width="165" height="31" viewBox="0 0 165 31" fill="none" xmlns="http://www.w3.org/2000/svg">
<path d="M145.851 15.8702C145.003 15.3012 144.079 14.9219 143.154 14.4287C142.576 14.1252 141.959 13.8218 141.458 13.4045C140.611 12.7217 140.765 11.3561 141.69 10.7491C142.961 9.9146 145.081 10.3698 145.312 12.0768C145.312 12.1148 145.35 12.1527 145.389 12.1527H147.316C147.354 12.1527 147.393 12.1148 147.393 12.0768C147.277 10.9009 146.815 9.9146 145.967 9.26972C145.158 8.66278 144.233 8.35931 143.231 8.35931C138.144 8.35931 137.682 13.67 140.418 15.3391C140.726 15.5288 143.424 16.8565 144.387 17.4634C145.35 18.0324 145.62 19.0946 145.235 19.9291C144.849 20.6878 143.886 21.2189 142.923 21.143C141.844 21.0671 141.034 20.4981 140.726 19.6256C140.688 19.4739 140.649 19.1704 140.649 19.0187C140.649 18.9808 140.611 18.9428 140.572 18.9428H138.491C138.453 18.9428 138.414 18.9808 138.414 19.0187C138.414 20.4981 138.799 21.3327 139.801 22.0913C140.765 22.8121 141.805 23.1155 142.923 23.1155C145.774 23.1155 147.238 21.5223 147.547 19.8912C147.778 18.298 147.316 16.8565 145.851 15.8702Z" fill="#8F9CA9"/>
<path d="M55.0254 8.66254H54.1006H53.0987C53.0602 8.66254 53.0216 8.70047 53.0216 8.70047L51.2876 14.2768C51.249 14.3526 51.172 14.3526 51.1334 14.2768L49.3994 8.70047C49.3994 8.66253 49.3609 8.66254 49.3223 8.66254H48.3204H47.3956H46.1625C46.124 8.66254 46.0854 8.70047 46.0854 8.7384V22.9637C46.0854 23.0016 46.124 23.0396 46.1625 23.0396H48.2434C48.2819 23.0396 48.3204 23.0016 48.3204 22.9637V12.1525C48.3204 12.0766 48.436 12.0387 48.4746 12.1145L50.2086 17.7288L50.3242 18.1081C50.3242 18.1461 50.3628 18.1461 50.4013 18.1461H52.0197C52.0583 18.1461 52.0968 18.1081 52.0968 18.1081L52.2124 17.7288L53.9464 12.1145C53.985 12.0387 54.1006 12.0387 54.1006 12.1525V22.9637C54.1006 23.0016 54.1391 23.0396 54.1776 23.0396H56.2585C56.297 23.0396 56.3356 23.0016 56.3356 22.9637V8.7384C56.3356 8.70047 56.297 8.66254 56.2585 8.66254H55.0254Z" fill="#8F9CA9"/>
<path d="M113.829 8.66254C113.79 8.66254 113.752 8.70047 113.752 8.70047L112.018 14.2768C111.979 14.3526 111.902 14.3526 111.864 14.2768L110.13 8.70047C110.13 8.66253 110.091 8.66254 110.053 8.66254H106.854C106.816 8.66254 106.777 8.70047 106.777 8.7384V22.9637C106.777 23.0016 106.816 23.0396 106.854 23.0396H108.935C108.974 23.0396 109.012 23.0016 109.012 22.9637V12.1525C109.012 12.0766 109.128 12.0387 109.166 12.1145L110.9 17.7288L111.016 18.1081C111.016 18.1461 111.054 18.1461 111.093 18.1461H112.711C112.75 18.1461 112.788 18.1081 112.788 18.1081L112.904 17.7288L114.638 12.1145C114.677 12.0387 114.792 12.0387 114.792 12.1525V22.9637C114.792 23.0016 114.831 23.0396 114.869 23.0396H116.95C116.989 23.0396 117.027 23.0016 117.027 22.9637V8.7384C117.027 8.70047 116.989 8.66254 116.95 8.66254H113.829Z" fill="#8F9CA9"/>
<path d="M86.8549 8.66254H82.963H80.8821H76.9516C76.9131 8.66254 76.8745 8.70047 76.8745 8.7384V10.5213C76.8745 10.5592 76.9131 10.5972 76.9516 10.5972H80.7665V22.9637C80.7665 23.0016 80.805 23.0396 80.8436 23.0396H82.9244C82.963 23.0396 83.0015 23.0016 83.0015 22.9637V10.5972H86.8164C86.8549 10.5972 86.8935 10.5592 86.8935 10.5213V8.7384C86.932 8.70047 86.8935 8.66254 86.8549 8.66254Z" fill="#8F9CA9"/>
<path d="M99.1858 23.0396H101.074C101.112 23.0396 101.151 23.0016 101.151 22.9257L97.2205 8.66263C97.2205 8.6247 97.182 8.62469 97.1434 8.62469H96.4113H95.1396H94.4075C94.3689 8.62469 94.3304 8.66263 94.3304 8.66263L90.3999 22.9257C90.3999 22.9637 90.4384 23.0396 90.477 23.0396H92.3652C92.4037 23.0396 92.4422 23.0016 92.4422 23.0016L93.5983 18.8289C93.5983 18.791 93.6368 18.791 93.6753 18.791H97.8756C97.9141 18.791 97.9526 18.8289 97.9526 18.8289L99.1087 23.0016C99.1087 23.0016 99.1472 23.0396 99.1858 23.0396ZM94.1763 16.7425L95.7177 11.1663C95.7562 11.0904 95.8333 11.0904 95.8718 11.1663L97.4132 16.7425C97.4132 16.7805 97.3746 16.8563 97.3361 16.8563H94.2919C94.2148 16.8563 94.1763 16.7805 94.1763 16.7425Z" fill="#8F9CA9"/>
<path d="M131.632 23.0396H133.52C133.559 23.0396 133.597 23.0016 133.597 22.9257L129.667 8.66263C129.667 8.6247 129.628 8.62469 129.589 8.62469H128.857H127.586H126.854C126.815 8.62469 126.776 8.66263 126.776 8.66263L122.846 22.9257C122.846 22.9637 122.884 23.0396 122.923 23.0396H124.811C124.85 23.0396 124.888 23.0016 124.888 23.0016L126.044 18.8289C126.044 18.791 126.083 18.791 126.121 18.791H130.322C130.36 18.791 130.399 18.8289 130.399 18.8289L131.555 23.0016C131.555 23.0016 131.593 23.0396 131.632 23.0396ZM126.622 16.7425L128.164 11.1663C128.202 11.0904 128.279 11.0904 128.318 11.1663L129.859 16.7425C129.859 16.7805 129.821 16.8563 129.782 16.8563H126.738C126.661 16.8563 126.622 16.7805 126.622 16.7425Z" fill="#8F9CA9"/>
<path d="M64.8131 20.9152V16.5149C64.8131 16.477 64.8517 16.439 64.8902 16.439H70.4777C70.5162 16.439 70.5547 16.4011 70.5547 16.3632V14.5802C70.5547 14.5423 70.5162 14.5044 70.4777 14.5044H64.8902C64.8517 14.5044 64.8131 14.4664 64.8131 14.4285V10.673C64.8131 10.6351 64.8517 10.5972 64.8902 10.5972H71.2098C71.2484 10.5972 71.2869 10.5592 71.2869 10.5213V8.7384C71.2869 8.70047 71.2484 8.66254 71.2098 8.66254H64.8131H62.6552C62.6167 8.66254 62.5781 8.70047 62.5781 8.7384V10.5972V14.5423V16.477V21.029V22.9637C62.5781 23.0016 62.6167 23.0396 62.6552 23.0396H64.8131H71.4796C71.5181 23.0396 71.5566 23.0016 71.5566 22.9637V21.1049C71.5566 21.067 71.5181 21.029 71.4796 21.029H64.8517C64.8517 20.9911 64.8131 20.9532 64.8131 20.9152Z" fill="#8F9CA9"/>
<path d="M164.964 22.8878L157.72 15.5287C157.681 15.4907 157.681 15.4528 157.72 15.4148L164.232 8.7385C164.27 8.70056 164.232 8.62469 164.193 8.62469H161.534C161.496 8.62469 161.496 8.6247 161.496 8.66263L155.947 14.3527C155.908 14.3906 155.831 14.3527 155.831 14.3148V8.77643C155.831 8.73849 155.793 8.70056 155.754 8.70056H153.635C153.596 8.70056 153.558 8.73849 153.558 8.77643V23.0016C153.558 23.0395 153.596 23.0775 153.635 23.0775H155.716C155.754 23.0775 155.793 23.0395 155.793 23.0016V16.7425C155.793 16.6667 155.87 16.6287 155.908 16.7046L162.151 23.0775L162.19 23.1154H164.848C164.964 23.0395 165.003 22.9258 164.964 22.8878Z" fill="#8F9CA9"/>
<path d="M31.789 1L19.1497 10.2558L21.5003 4.79336L31.789 1Z" fill="#E17726" stroke="#E17726" stroke-width="0.385345" stroke-linecap="round" stroke-linejoin="round"/>
<path d="M2.57983 1L15.142 10.3317L12.907 4.79336L2.57983 1Z" fill="#E27625" stroke="#E27625" stroke-width="0.385345" stroke-linecap="round" stroke-linejoin="round"/>
<path d="M27.2421 22.4326L23.8511 27.5157L31.0956 29.4882L33.1379 22.5464L27.2421 22.4326Z" fill="#E27625" stroke="#E27625" stroke-width="0.385345" stroke-linecap="round" stroke-linejoin="round"/>
<path d="M1.26978 22.5464L3.31211 29.4882L10.5181 27.5157L7.16556 22.4326L1.26978 22.5464Z" fill="#E27625" stroke="#E27625" stroke-width="0.385345" stroke-linecap="round" stroke-linejoin="round"/>
<path d="M10.1327 13.8595L8.12891 16.8563L15.2578 17.1597L15.0266 9.573L10.1327 13.8595Z" fill="#E27625" stroke="#E27625" stroke-width="0.385345" stroke-linecap="round" stroke-linejoin="round"/>
<path d="M24.2748 13.8595L19.3038 9.49713L19.1497 17.1597L26.2786 16.8563L24.2748 13.8595Z" fill="#E27625" stroke="#E27625" stroke-width="0.385345" stroke-linecap="round" stroke-linejoin="round"/>
<path d="M10.5181 27.5157L14.8339 25.4673L11.0961 22.5844L10.5181 27.5157Z" fill="#E27625" stroke="#E27625" stroke-width="0.385345" stroke-linecap="round" stroke-linejoin="round"/>
<path d="M19.5737 25.4673L23.8511 27.5157L23.2731 22.5844L19.5737 25.4673Z" fill="#E27625" stroke="#E27625" stroke-width="0.385345" stroke-linecap="round" stroke-linejoin="round"/>
<path d="M23.8511 27.5156L19.5737 25.4672L19.9205 28.1985L19.882 29.3744L23.8511 27.5156Z" fill="#D5BFB2" stroke="#D5BFB2" stroke-width="0.385345" stroke-linecap="round" stroke-linejoin="round"/>
<path d="M10.5181 27.5156L14.5256 29.3744L14.4871 28.1985L14.8339 25.4672L10.5181 27.5156Z" fill="#D5BFB2" stroke="#D5BFB2" stroke-width="0.385345" stroke-linecap="round" stroke-linejoin="round"/>
<path d="M14.6027 20.7635L11.019 19.7393L13.5238 18.6012L14.6027 20.7635Z" fill="#233447" stroke="#233447" stroke-width="0.385345" stroke-linecap="round" stroke-linejoin="round"/>
<path d="M19.8049 20.7635L20.8454 18.6012L23.3886 19.7393L19.8049 20.7635Z" fill="#233447" stroke="#233447" stroke-width="0.385345" stroke-linecap="round" stroke-linejoin="round"/>
<path d="M10.518 27.5157L11.1345 22.4324L7.16553 22.5462L10.518 27.5157Z" fill="#CC6228" stroke="#CC6228" stroke-width="0.385345" stroke-linecap="round" stroke-linejoin="round"/>
<path d="M23.2729 22.4324L23.851 27.5157L27.2419 22.5462L23.2729 22.4324Z" fill="#CC6228" stroke="#CC6228" stroke-width="0.385345" stroke-linecap="round" stroke-linejoin="round"/>
<path d="M26.2786 16.8564L19.1497 17.1599L19.8047 20.7635L20.8452 18.6013L23.3885 19.7393L26.2786 16.8564Z" fill="#CC6228" stroke="#CC6228" stroke-width="0.385345" stroke-linecap="round" stroke-linejoin="round"/>
<path d="M11.019 19.7392L13.5237 18.6012L14.6027 20.7634L15.2578 17.1597L8.12891 16.8563L11.019 19.7392Z" fill="#CC6228" stroke="#CC6228" stroke-width="0.385345" stroke-linecap="round" stroke-linejoin="round"/>
<path d="M8.12891 16.8564L11.096 22.5844L11.0189 19.7394L8.12891 16.8564Z" fill="#E27525" stroke="#E27525" stroke-width="0.385345" stroke-linecap="round" stroke-linejoin="round"/>
<path d="M23.3886 19.7394L23.2729 22.5844L26.2786 16.8564L23.3886 19.7394Z" fill="#E27525" stroke="#E27525" stroke-width="0.385345" stroke-linecap="round" stroke-linejoin="round"/>
<path d="M15.2579 17.1597L14.6028 20.7635L15.412 25.05L15.6047 19.3978L15.2579 17.1597Z" fill="#E27525" stroke="#E27525" stroke-width="0.385345" stroke-linecap="round" stroke-linejoin="round"/>
<path d="M19.1495 17.1597L18.8027 19.3978L18.9569 25.05L19.8046 20.7635L19.1495 17.1597Z" fill="#E27525" stroke="#E27525" stroke-width="0.385345" stroke-linecap="round" stroke-linejoin="round"/>
<path d="M19.805 20.7635L18.9573 25.05L19.5738 25.4672L23.2731 22.5843L23.3887 19.7393L19.805 20.7635Z" fill="#F5841F" stroke="#F5841F" stroke-width="0.385345" stroke-linecap="round" stroke-linejoin="round"/>
<path d="M11.019 19.7393L11.0961 22.5843L14.8339 25.4672L15.4119 25.05L14.6027 20.7635L11.019 19.7393Z" fill="#F5841F" stroke="#F5841F" stroke-width="0.385345" stroke-linecap="round" stroke-linejoin="round"/>
<path d="M19.8819 29.3744L19.9204 28.1985L19.5736 27.9329H14.7954L14.4871 28.1985L14.5256 29.3744L10.5181 27.5157L11.9053 28.6537L14.7568 30.5882H19.6122L22.4637 28.6537L23.851 27.5157L19.8819 29.3744Z" fill="#C0AC9D" stroke="#C0AC9D" stroke-width="0.385345" stroke-linecap="round" stroke-linejoin="round"/>
<path d="M19.5738 25.4673L18.9573 25.05H15.4121L14.8341 25.4673L14.4873 28.1985L14.7956 27.933H19.5738L19.9207 28.1985L19.5738 25.4673Z" fill="#8F9CA9" stroke="#8F9CA9" stroke-width="0.385345" stroke-linecap="round" stroke-linejoin="round"/>
<path d="M32.3286 10.8628L33.4076 5.74176L31.7891 1.00006L19.5737 9.95239L24.2749 13.8595L30.9029 15.7562L32.3672 14.0871L31.7506 13.6319L32.7525 12.7215L31.9818 12.1146L32.9837 11.3559L32.3286 10.8628Z" fill="#763E1A" stroke="#763E1A" stroke-width="0.385345" stroke-linecap="round" stroke-linejoin="round"/>
<path d="M1 5.74176L2.07896 10.8628L1.38534 11.3559L2.38724 12.1146L1.61655 12.7215L2.65698 13.6319L2.00189 14.0871L3.4662 15.7562L10.1327 13.8595L14.8339 9.95239L2.57991 1.00006L1 5.74176Z" fill="#763E1A" stroke="#763E1A" stroke-width="0.385345" stroke-linecap="round" stroke-linejoin="round"/>
<path d="M30.9028 15.7563L24.2748 13.8596L26.2786 16.8563L23.2729 22.5844L27.242 22.5464H33.1378L30.9028 15.7563Z" fill="#F5841F" stroke="#F5841F" stroke-width="0.385345" stroke-linecap="round" stroke-linejoin="round"/>
<path d="M10.1327 13.8596L3.46623 15.7563L1.26978 22.5464H7.16552L11.096 22.5844L8.12887 16.8563L10.1327 13.8596Z" fill="#F5841F" stroke="#F5841F" stroke-width="0.385345" stroke-linecap="round" stroke-linejoin="round"/>
<path d="M19.1498 17.1597L19.5737 9.95235L21.5004 4.7934H12.9072L14.8339 9.95235L15.2578 17.1597L15.412 19.4357V25.0499H18.9571V19.4357L19.1498 17.1597Z" fill="#F5841F" stroke="#F5841F" stroke-width="0.385345" stroke-linecap="round" stroke-linejoin="round"/>
</svg>
