<svg width="144" height="30" viewBox="0 0 144 30" fill="none" xmlns="http://www.w3.org/2000/svg">
<path d="M13.9269 17.7982H12.0461C10.9175 17.7982 14.7629 23.106 17.5424 23.7026C18.1694 23.8261 18.4828 24.1347 18.4828 24.7313V28.6196C18.4619 29.3602 18.0231 29.7099 17.2916 29.6071C11.9834 28.743 8.11711 25.9451 5.71377 21.1927C5.35849 20.5138 5.08681 19.8143 4.87782 19.0737C4.48074 17.8599 4.43895 17.7982 3.12233 17.757C1.49224 17.7159 0.426404 16.893 0.0711266 15.4323C-0.325948 13.7864 0.990667 12.0583 2.74615 11.9555C2.99694 11.9349 3.22682 11.9349 3.47761 11.9555C4.22996 12.0172 4.62703 11.6057 4.81512 10.9474C5.27489 9.30154 6.00635 7.73799 6.98858 6.33903C7.80363 5.16637 8.2216 5.12523 9.24564 6.09216C10.0189 6.83278 10.7712 7.61456 11.5445 8.35518C12.0461 8.82836 12.1715 9.34268 11.7326 9.91873C11.5027 10.2273 11.3146 10.5565 11.1474 10.9062C10.7921 11.6263 10.9802 11.9349 11.7953 11.9349C13.2164 11.9555 14.6166 11.9349 16.0586 11.9349C17.5633 11.9555 18.6709 12.8607 19.0262 14.3419C19.2979 15.5352 18.6291 16.9958 17.3334 17.469C16.5811 17.757 15.6824 17.7159 14.8465 17.7776C14.5539 17.8188 14.2404 17.7982 13.9269 17.7982Z" fill="#007EA4"/>
<path d="M20.1965 0.00253325C25.1076 0.208261 29.4337 2.5947 32.4013 7.26472C33.4253 8.88997 33.1327 10.3918 31.6698 11.2764C30.1024 12.2639 28.3469 11.8524 27.3647 10.2889C25.8809 7.92305 23.791 6.42124 21.0115 5.90692C18.7963 5.51603 16.4974 5.92749 14.5747 7.10014C13.697 7.63503 13.4253 7.57331 12.6939 6.85327L10.3532 4.54912C9.68446 3.84964 9.70536 3.37647 10.4995 2.80043C12.9864 1.0106 16.3929 -0.0591851 20.1965 0.00253325ZM20.4055 26.6648V24.6899C20.3637 24.2373 20.6771 23.8464 21.1369 23.7847C23.9373 23.2086 26.0063 21.6657 27.4692 19.2792C28.117 18.2094 29.1411 17.798 30.3532 17.9831C31.4608 18.1477 32.3177 18.7032 32.7983 19.7318C33.1118 20.4107 33.07 21.1925 32.7147 21.8508C30.4786 26.0271 26.3616 28.8867 21.6176 29.5656C20.8025 29.6685 20.4264 29.3804 20.4055 28.5781C20.3846 27.9609 20.4055 27.3232 20.4055 26.6648Z" fill="#1AA64A"/>
<path d="M43.4778 8.86953V22.18H40.9073V8.86953H36.7275V6.75055H47.6157V8.86953H43.4778V8.86953Z" fill="#007EA4"/>
<path d="M47.6155 17.2013C47.5946 16.4813 47.7409 15.7818 48.0544 15.144C48.326 14.4857 48.744 13.9097 49.2665 13.4159C49.7889 12.9222 50.395 12.5313 51.0637 12.2844C52.4431 11.7495 53.9686 11.7495 55.348 12.2844C56.0376 12.5519 56.6437 12.9633 57.1452 13.4776C57.6677 13.9714 58.0857 14.568 58.3574 15.2263C58.9216 16.543 58.9425 18.0242 58.3782 19.3409C58.1066 19.9992 57.6886 20.5753 57.1661 21.069C56.1003 22.0977 54.6583 22.6737 53.1536 22.6532C52.4222 22.6532 51.7116 22.5297 51.022 22.2623C50.3532 21.9948 49.7262 21.6039 49.2247 21.0896C48.7022 20.5959 48.3051 19.9992 48.0126 19.3409C47.7618 18.662 47.6364 17.942 47.6155 17.2013ZM56.372 17.2425C56.3929 16.3578 56.0794 15.5144 55.4524 14.8766C54.8882 14.2594 54.0731 13.9097 53.2163 13.9302C52.3595 13.9302 51.5653 14.28 50.9802 14.8766C49.7471 16.2138 49.7471 18.2506 50.9802 19.5878C52.1296 20.8016 54.0731 20.8633 55.3062 19.7318C55.348 19.6907 55.4106 19.6495 55.4524 19.5878C56.0794 18.95 56.3929 18.1065 56.372 17.2425Z" fill="#007EA4"/>
<path d="M61.3041 22.2211V5.86572H63.6239V16.3579L67.8872 12.2022H70.7503L66.1526 16.6047L71.2101 22.2006H68.1798L63.603 17.0368V22.2006H61.2832V22.2211H61.3041Z" fill="#007EA4"/>
<path d="M71.4402 17.2013C71.4193 16.4813 71.5656 15.7818 71.8791 15.144C72.1507 14.4857 72.5687 13.9097 73.0912 13.4159C73.6136 12.9222 74.2197 12.5313 74.8885 12.2844C76.2678 11.7495 77.7934 11.7495 79.1727 12.2844C79.8623 12.5519 80.4684 12.9633 80.9699 13.4776C81.4924 13.9714 81.9104 14.568 82.1821 15.2263C82.7463 16.543 82.7672 18.0242 82.203 19.3409C81.9313 19.9992 81.5133 20.5753 80.9908 21.069C79.925 22.0977 78.483 22.6737 76.9783 22.6532C76.2469 22.6532 75.5363 22.5297 74.8467 22.2623C74.1779 21.9948 73.5509 21.6039 73.0494 21.0896C72.5269 20.5959 72.1298 19.9992 71.8373 19.3409C71.5865 18.662 71.4402 17.942 71.4402 17.2013ZM80.1758 17.2425C80.1967 16.3578 79.8832 15.5144 79.2563 14.8766C78.692 14.2594 77.877 13.9097 77.0201 13.9302C76.1633 13.9302 75.3691 14.28 74.784 14.8766C73.5718 16.2138 73.5718 18.2506 74.784 19.5878C75.9334 20.8016 77.877 20.8633 79.11 19.7318C79.1518 19.6907 79.2145 19.6495 79.2563 19.5878C79.8832 18.95 80.2176 18.1065 80.1758 17.2425Z" fill="#007EA4"/>
<path d="M92.694 15.0618C92.3596 14.6709 91.9416 14.3829 91.461 14.1977C90.9803 13.992 90.4578 13.8686 89.9354 13.8892C88.9949 13.8892 88.2008 14.1772 87.6365 14.7944C87.0723 15.4116 86.7797 16.1933 86.7797 17.2014C86.7797 18.2095 87.0723 19.053 87.6365 19.6702C88.2008 20.2874 89.0158 20.5754 90.0399 20.5754C90.5623 20.596 91.0848 20.4725 91.5446 20.2668C92.0043 20.0405 92.4014 19.7113 92.694 19.3204V21.9743C92.2551 22.2212 91.7954 22.3858 91.3147 22.5092C90.8131 22.6327 90.2698 22.6944 89.7473 22.6944C88.159 22.6944 86.8633 22.1801 85.8393 21.1926C84.8152 20.2051 84.3555 18.8884 84.3555 17.2837C84.3555 15.679 84.8779 14.3623 85.9229 13.3954C86.9678 12.4285 88.3262 11.9141 89.9981 11.9141C90.4996 11.9141 90.9803 11.9553 91.461 12.0787C91.8998 12.1816 92.3178 12.3462 92.694 12.5519V15.0618ZM97.3962 13.7863C97.5843 13.2102 97.9186 12.7165 98.3993 12.3256C98.8382 11.9964 99.3815 11.8319 99.9249 11.8524C100.259 11.8524 100.573 11.8936 100.886 11.9553C101.221 12.0376 101.534 12.161 101.827 12.305L100.991 14.2389C100.803 14.0949 100.573 13.992 100.343 13.9303C100.092 13.848 99.8204 13.8069 99.5696 13.8274C98.7964 13.8274 98.253 14.1155 97.8977 14.7326C97.5425 15.3498 97.3753 16.3785 97.3753 17.8186V22.2212H95.0555V12.2022H97.3753V13.7863H97.3962Z" fill="#1AA64A"/>
<path d="M104.92 26.9118H102.516L105.317 21.3366L101.576 12.1817H104.167L106.027 17.3455L106.32 18.2918C106.404 18.621 106.466 18.9501 106.508 19.2999C106.696 18.7238 106.905 18.1684 107.177 17.6335L107.239 17.51L109.747 12.1817H112.276L104.92 26.9118ZM113.509 26.9118V12.2023H115.829V13.8481C116.08 13.2309 116.539 12.7166 117.125 12.3874C117.772 12.0171 118.504 11.8525 119.256 11.8525C120.531 11.8114 121.743 12.3668 122.537 13.3338C123.373 14.3213 123.791 15.6173 123.791 17.2015C123.791 18.8678 123.394 20.2051 122.558 21.172C121.722 22.1389 120.594 22.6121 119.173 22.6121C117.814 22.6738 116.539 22.0155 115.808 20.9046V26.9118H113.509V26.9118ZM115.766 17.1809C115.766 18.2095 116.038 19.0324 116.539 19.6702C117.041 20.2668 117.814 20.6165 118.608 20.596C119.486 20.596 120.176 20.3079 120.656 19.7319C121.137 19.1559 121.388 18.333 121.388 17.2632C121.388 16.1934 121.137 15.391 120.636 14.7944C120.113 14.1978 119.361 13.8687 118.567 13.8892C117.689 13.8892 116.999 14.1772 116.518 14.7739C116.038 15.3705 115.766 16.1522 115.766 17.1809ZM126.842 22.2212V14.2184H125.066V12.2023H126.842V8.41687H129.162V12.2023H130.939V14.2184H129.162V22.2212H126.842ZM132.213 17.2015C132.192 16.4814 132.36 15.7819 132.652 15.1442C133.216 13.8275 134.303 12.7989 135.641 12.2846C137.02 11.7497 138.546 11.7497 139.925 12.2846C140.615 12.552 141.221 12.9635 141.722 13.4778C142.245 13.9715 142.663 14.5681 142.934 15.2265C143.499 16.5431 143.52 18.0244 142.955 19.341C142.684 19.9994 142.266 20.5754 141.743 21.0691C140.677 22.0978 139.235 22.6532 137.731 22.6532C136.999 22.6532 136.289 22.5298 135.599 22.2624C134.93 21.9949 134.303 21.604 133.802 21.0897C133.279 20.596 132.882 19.9994 132.59 19.341C132.339 18.6415 132.192 17.9215 132.213 17.2015ZM140.97 17.2426C140.991 16.358 140.656 15.5145 140.029 14.8767C139.465 14.2595 138.65 13.9098 137.793 13.9304C136.936 13.9304 136.142 14.2801 135.557 14.8767C134.345 16.214 134.345 18.2507 135.557 19.5879C136.707 20.8017 138.65 20.8634 139.883 19.7319C139.925 19.6908 139.988 19.6496 140.029 19.5879C140.636 18.9501 140.97 18.1067 140.97 17.2426Z" fill="#1AA64A"/>
</svg>
