<svg width="140" height="36" viewBox="0 0 140 36" fill="none" xmlns="http://www.w3.org/2000/svg">
<path d="M47.3413 14.6465H43.5459V12.4445H53.8813V14.6465H50.0859V24.1207H47.3413V14.6465ZM56.4816 16.3312C56.7977 15.8974 57.2215 15.5693 57.7522 15.3468C58.2943 15.1247 58.9155 15.0132 59.6159 15.0132V17.4154C59.3225 17.393 59.1247 17.3819 59.0229 17.3819C58.2661 17.3819 57.6731 17.5932 57.2438 18.0158C56.8145 18.4272 56.5999 19.0499 56.5999 19.8839V24.1207H53.9568V15.1467H56.4816V16.3312ZM69.4209 15.1467V24.1207H66.913V23.053C66.5628 23.4421 66.1449 23.7424 65.6592 23.9537C65.1735 24.1538 64.6483 24.2541 64.0834 24.2541C62.8861 24.2541 61.9374 23.9148 61.2371 23.2365C60.5367 22.5583 60.1866 21.5519 60.1866 20.2174V15.1467H62.8297V19.8338C62.8297 21.2793 63.4454 22.0023 64.6765 22.0023C65.309 22.0023 65.8174 21.8022 66.2017 21.4016C66.5855 20.9902 66.7775 20.3844 66.7775 19.5835V15.1467H69.4209ZM73.92 24.2541C73.1629 24.2541 72.423 24.165 71.7003 23.9873C70.9773 23.798 70.4011 23.5647 69.9718 23.2867L70.8531 21.4185C71.2597 21.6742 71.7509 21.8855 72.327 22.052C72.9032 22.2078 73.468 22.2857 74.0215 22.2857C75.1397 22.2857 75.6991 22.0135 75.6991 21.4683C75.6991 21.2126 75.5463 21.0291 75.2416 20.918C74.9365 20.807 74.4676 20.7122 73.835 20.6343C73.0896 20.5232 72.4739 20.3952 71.9882 20.251C71.5025 20.1064 71.0791 19.8504 70.7176 19.4837C70.3674 19.1166 70.1923 18.5941 70.1923 17.9155C70.1923 17.3487 70.3561 16.8482 70.6835 16.4144C71.0223 15.9695 71.508 15.6248 72.1406 15.3803C72.7845 15.1358 73.5413 15.0132 74.4112 15.0132C75.0551 15.0132 75.6932 15.0857 76.3258 15.2303C76.9697 15.3637 77.5008 15.5527 77.9187 15.7971L77.0375 17.6487C76.2357 17.2041 75.3602 16.9816 74.4112 16.9816C73.8464 16.9816 73.423 17.0595 73.1406 17.2149C72.8582 17.3707 72.7168 17.5708 72.7168 17.8156C72.7168 18.0936 72.8695 18.288 73.1743 18.3994C73.4794 18.5105 73.9651 18.6161 74.6313 18.7164C75.3771 18.8386 75.987 18.972 76.4613 19.1166C76.936 19.25 77.3481 19.5003 77.6982 19.8673C78.0484 20.234 78.2235 20.7457 78.2235 21.4016C78.2235 21.9576 78.0543 22.4526 77.7154 22.8861C77.3763 23.3198 76.8792 23.6591 76.2243 23.9036C75.5804 24.1373 74.8123 24.2541 73.92 24.2541ZM84.7173 23.6869C84.4576 23.8758 84.1357 24.0204 83.7514 24.1207C83.3789 24.2094 82.9833 24.2541 82.5654 24.2541C81.4812 24.2541 80.6395 23.9815 80.041 23.4367C79.4535 22.8918 79.1597 22.091 79.1597 21.0349V17.3487H77.7535V15.3468H79.1597V13.1621H81.8028V15.3468H84.0734V17.3487H81.8028V21.0013C81.8028 21.3796 81.8991 21.6742 82.0911 21.8855C82.2944 22.0856 82.5768 22.1858 82.9383 22.1858C83.3562 22.1858 83.7119 22.0744 84.0056 21.8519L84.7173 23.6869ZM107.079 12.4445L103.199 24.1207H100.251L97.6417 16.2143L94.9477 24.1207H92.0163L88.1194 12.4445H90.9658L93.6429 20.6512L96.4388 12.4445H98.9801L101.691 20.7179L104.453 12.4445H107.079ZM110.407 15.0132C111.819 15.0132 112.904 15.3468 113.66 16.0142C114.417 16.6701 114.795 17.6653 114.795 18.9998V24.1207H112.322V23.0029C111.825 23.8369 110.899 24.2541 109.543 24.2541C108.843 24.2541 108.233 24.1373 107.713 23.9036C107.205 23.6703 106.815 23.3476 106.544 22.9362C106.273 22.5248 106.137 22.0578 106.137 21.535C106.137 20.7013 106.454 20.0451 107.086 19.567C107.73 19.0888 108.718 18.8498 110.051 18.8498H112.152C112.152 18.2826 111.977 17.8488 111.627 17.5488C111.277 17.2373 110.752 17.0815 110.051 17.0815C109.566 17.0815 109.085 17.1594 108.611 17.3152C108.148 17.4598 107.753 17.6599 107.425 17.9155L106.476 16.0975C106.973 15.7528 107.566 15.486 108.255 15.297C108.955 15.1077 109.673 15.0132 110.407 15.0132ZM110.204 22.5024C110.656 22.5024 111.057 22.4025 111.407 22.2024C111.757 21.9911 112.006 21.6853 112.152 21.2851V20.3674H110.339C109.255 20.3674 108.713 20.7179 108.713 21.4185C108.713 21.7521 108.843 22.0189 109.102 22.219C109.373 22.4079 109.741 22.5024 110.204 22.5024ZM116.171 11.7443H118.814V24.1207H116.171V11.7443ZM120.251 11.7443H122.894V24.1207H120.251V11.7443ZM133.26 19.6668C133.26 19.7004 133.243 19.934 133.209 20.3674H126.313C126.437 20.9234 126.731 21.3626 127.194 21.6853C127.658 22.0077 128.233 22.1689 128.923 22.1689C129.397 22.1689 129.815 22.1022 130.176 21.9688C130.549 21.8242 130.894 21.6021 131.21 21.3017L132.616 22.8028C131.758 23.7702 130.504 24.2541 128.855 24.2541C127.827 24.2541 126.918 24.0594 126.127 23.6703C125.336 23.2697 124.726 22.7195 124.297 22.0189C123.868 21.3183 123.653 20.5232 123.653 19.6337C123.653 18.7553 123.862 17.9656 124.28 17.265C124.709 16.5536 125.291 16.003 126.025 15.614C126.771 15.2134 127.601 15.0132 128.516 15.0132C129.408 15.0132 130.216 15.2025 130.939 15.5804C131.662 15.9587 132.227 16.5035 132.633 17.2149C133.051 17.9155 133.26 18.7329 133.26 19.6668ZM128.533 16.9816C127.934 16.9816 127.432 17.1482 127.025 17.4821C126.618 17.8156 126.37 18.2714 126.279 18.8498H130.77C130.679 18.2826 130.431 17.8322 130.024 17.4987C129.617 17.154 129.12 16.9816 128.533 16.9816ZM139.883 23.6869C139.623 23.8758 139.301 24.0204 138.917 24.1207C138.544 24.2094 138.149 24.2541 137.731 24.2541C136.647 24.2541 135.805 23.9815 135.206 23.4367C134.619 22.8918 134.325 22.091 134.325 21.0349V17.3487H132.919V15.3468H134.325V13.1621H136.969V15.3468H139.239V17.3487H136.969V21.0013C136.969 21.3796 137.064 21.6742 137.256 21.8855C137.46 22.0856 137.742 22.1858 138.104 22.1858C138.522 22.1858 138.878 22.0744 139.171 21.8519L139.883 23.6869Z" fill="#3375BB"/>
<path d="M24.2231 1H12.7389C6.25567 1 1 6.17372 1 12.5558V23.861C1 30.2431 6.25567 35.4169 12.7389 35.4169H24.2231C30.7063 35.4169 35.962 30.2431 35.962 23.861V12.5558C35.962 6.17372 30.7063 1 24.2231 1Z" fill="white" stroke="#DFE5EC" stroke-width="0.366284"/>
<path d="M2.33545 18.457C2.33545 9.62478 9.60872 2.46503 18.5807 2.46503C27.5528 2.46503 34.8261 9.62478 34.8261 18.457C34.8261 27.2893 27.5528 34.4492 18.5807 34.4492C9.60872 34.4492 2.33545 27.2893 2.33545 18.457Z" fill="white"/>
<path d="M18.5901 8.89917C21.8683 11.5945 25.6279 11.4282 26.7018 11.4282C26.467 26.7563 24.6766 23.7167 18.5901 28.0147C12.5037 23.7167 10.7247 26.7563 10.4897 11.4282C11.5526 11.4282 15.312 11.5945 18.5901 8.89917Z" stroke="#3375BB" stroke-width="2.22079" stroke-miterlimit="10" stroke-linecap="round" stroke-linejoin="round"/>
</svg>
