<svg width="155" height="31" viewBox="0 0 155 31" fill="none" xmlns="http://www.w3.org/2000/svg">
<path d="M7.01276 15.2753L3.50486 18.7255L0 15.2753L3.50486 11.8251L7.01276 15.2753ZM15.5172 6.89746L21.5234 12.813L25.0282 9.36276L15.5172 0L6.00617 9.36276L9.51103 12.813L15.5172 6.89746ZM27.5326 11.8251L24.0277 15.2753L27.5326 18.7255L31.0344 15.2753L27.5326 11.8251ZM15.5172 23.6531L9.51103 17.7406L6.00617 21.1878L15.5172 30.5506L25.0282 21.1878L21.5234 17.7406L15.5172 23.6531ZM15.5172 18.7255L19.0221 15.2753L15.5172 11.8251L12.0123 15.2753L15.5172 18.7255ZM52.5062 19.0568V19.0091C52.5062 16.7587 51.2935 15.6335 49.3197 14.8933C50.5325 14.2217 51.5572 13.1682 51.5572 11.2789V11.2311C51.5572 8.5987 49.4167 6.89746 45.9392 6.89746H38.0441V23.6531H46.1393C49.9807 23.6531 52.5123 22.122 52.5123 19.0568H52.5062ZM47.8371 11.8937C47.8371 13.1383 46.7911 13.6666 45.1387 13.6666H41.6915V10.1298H45.3874C46.967 10.1298 47.8432 10.7506 47.8432 11.8519L47.8371 11.8937ZM48.7861 18.5972C48.7861 19.8418 47.7886 20.4148 46.1332 20.4148H41.6915V16.7348H46.018C47.9402 16.7348 48.7922 17.4302 48.7922 18.5554L48.7861 18.5972ZM60.374 23.6531V6.89746H56.6175V23.6531H60.374ZM80.5027 23.6531V6.89746H76.7947V17.2153L68.8208 6.89746H65.3675V23.6531H69.0634V13.001L77.304 23.6531H80.5027ZM101.244 23.6531L93.937 6.77808H90.4836L83.192 23.6531H87.0091L88.5705 19.8955H95.7682L97.3236 23.6531H101.244ZM94.4372 16.6393H89.9015L92.1633 11.2073L94.4372 16.6393ZM119.093 23.6531V6.89746H115.385V17.2153L107.408 6.89746H103.957V23.6531H107.65V13.001L115.894 23.6531H119.093ZM138.421 20.9491L136.041 18.5793C134.704 19.7731 133.512 20.5402 131.566 20.5402C128.649 20.5402 126.63 18.1525 126.63 15.2753V15.2275C126.63 12.3563 128.698 10.0104 131.566 10.0104C133.267 10.0104 134.598 10.7267 135.92 11.8997L138.293 9.19562C136.714 7.66451 134.795 6.61094 131.584 6.61094C126.357 6.61094 122.71 10.5118 122.71 15.2663V15.3141C122.71 20.1253 126.43 23.9307 131.438 23.9307C134.716 23.9397 136.659 22.7906 138.409 20.9491H138.421ZM154.399 23.6531V20.3701H145.146V16.8452H153.171V13.5621H145.146V10.1776H154.265V6.89448H141.425V23.6502L154.399 23.6531Z" fill="#F0B90B"/>
</svg>
