<svg width="150" height="27" viewBox="0 0 150 27" fill="none" xmlns="http://www.w3.org/2000/svg">
<path d="M30.1617 7.33673C24.7327 7.33673 20.4908 11.3937 20.4908 16.8248C20.4908 22.2559 24.6255 26.2781 30.1617 26.2781C35.6978 26.2781 39.9044 22.1865 39.9044 16.7901C39.9044 11.4284 35.7696 7.33673 30.1617 7.33673ZM30.1969 22.3627C27.1053 22.3627 24.8399 19.9991 24.8399 16.8248C24.8399 13.6145 27.0687 11.2521 30.1603 11.2521C33.2885 11.2521 35.5526 13.6505 35.5526 16.8248C35.5526 19.9991 33.2885 22.3627 30.1969 22.3627ZM41.0901 11.4631H43.7869V25.9256H48.1007V7.68927H41.0901V11.4631ZM9.63426 11.2521C11.8997 11.2521 13.6971 12.6276 14.3795 14.6735H18.9457C18.1182 10.3 14.4514 7.33673 9.67088 7.33673C4.24195 7.33673 0 11.3937 0 16.8248C0 22.2559 4.13478 26.2781 9.67088 26.2781C14.3442 26.2781 18.0829 23.3149 18.9104 18.9054H14.3808C13.7338 20.9512 11.9363 22.3627 9.67088 22.3627C6.54267 22.3627 4.35047 19.9991 4.35047 16.8248C4.34912 13.6158 6.50604 11.2521 9.63426 11.2521ZM123.056 15.0621L119.892 14.604C118.383 14.393 117.304 13.8989 117.304 12.7344C117.304 11.4645 118.707 10.8302 120.611 10.8302C122.696 10.8302 124.027 11.7115 124.315 13.1578H128.485C128.017 9.48941 125.141 7.33806 120.72 7.33806C116.154 7.33806 113.134 9.63096 113.134 12.876C113.134 15.9795 115.112 17.7796 119.101 18.3432L122.265 18.8012C123.811 19.0122 124.674 19.6131 124.674 20.7415C124.674 22.1878 123.164 22.7874 121.079 22.7874C118.526 22.7874 117.088 21.7645 116.873 20.2127H112.631C113.027 23.7756 115.866 26.2795 121.043 26.2795C125.753 26.2795 128.88 24.1629 128.88 20.5292C128.88 17.2842 126.614 15.5909 123.056 15.0621ZM45.9438 0.176271C44.3621 0.176271 43.1751 1.30469 43.1751 2.85643C43.1751 4.40818 44.3607 5.5366 45.9438 5.5366C47.5256 5.5366 48.7125 4.40818 48.7125 2.85643C48.7112 1.30469 47.5256 0.176271 45.9438 0.176271ZM109.252 13.9323C109.252 9.98217 106.807 7.33673 101.63 7.33673C96.7414 7.33673 94.0093 9.77117 93.4694 13.5103H97.7479C97.9636 12.0641 99.114 10.8649 101.559 10.8649C103.752 10.8649 104.831 11.817 104.831 12.9815C104.831 14.4985 102.853 14.8858 100.408 15.1328C97.1009 15.4854 93.0027 16.6138 93.0027 20.847C93.0027 24.1281 95.4839 26.2434 99.4382 26.2434C102.53 26.2434 104.471 24.9735 105.442 22.9623C105.586 24.7611 106.952 25.9256 108.858 25.9256H111.375V22.1517H109.253V13.9323H109.252ZM105.008 18.5181C105.008 20.9525 102.851 22.7513 100.226 22.7513C98.608 22.7513 97.242 22.081 97.242 20.6708C97.242 18.872 99.4355 18.3779 101.449 18.1669C103.39 17.9906 104.468 17.5673 105.008 16.7554V18.5181ZM82.1082 7.33673C79.699 7.33673 77.6858 8.32493 76.2479 9.98217V0H71.9341V25.9269H76.176V23.5285C77.614 25.2566 79.6637 26.2795 82.1082 26.2795C87.2848 26.2795 91.2039 22.2586 91.2039 16.8261C91.2039 11.3937 87.2143 7.33673 82.1082 7.33673ZM81.4611 22.3627C78.3696 22.3627 76.1041 19.9991 76.1041 16.8248C76.1041 13.6505 78.4048 11.2521 81.4964 11.2521C84.6246 11.2521 86.8168 13.6158 86.8168 16.8248C86.8182 20.0004 84.5527 22.3627 81.4611 22.3627ZM61.6175 7.33673C58.8135 7.33673 56.9794 8.46515 55.9009 10.0529V7.68927H51.6223V25.9256H55.9362V16.0142C55.9362 13.2272 57.7336 11.2521 60.3938 11.2521C62.875 11.2521 64.4201 12.9802 64.4201 15.4854V25.9269H68.7339V15.1689C68.7353 10.5818 66.3274 7.33673 61.6175 7.33673ZM149.442 16.2252C149.442 11.0051 145.56 7.33673 140.346 7.33673C134.81 7.33673 130.748 11.4284 130.748 16.8248C130.748 22.5043 135.098 26.2781 140.418 26.2781C144.913 26.2781 148.436 23.6674 149.334 19.9643H144.839C144.192 21.5869 142.611 22.5043 140.489 22.5043C137.72 22.5043 135.635 20.811 135.169 17.8477H149.441V16.2252H149.442ZM135.422 14.815C136.106 12.2751 138.047 11.0411 140.276 11.0411C142.72 11.0411 144.59 12.4166 145.021 14.815H135.422Z" fill="#0052FF"/>
</svg>
